<svg version="1.1" id="Layer_1" xmlns="http://www.w3.org/2000/svg" xmlns:xlink="http://www.w3.org/1999/xlink" x="0px" y="0px"
	 width="100%" viewBox="0 0 86 79" enable-background="new 0 0 86 79" xml:space="preserve">
<path fill="#FCFCFF" opacity="1.000000" stroke="none" 
	d="
M53.000000,80.000000 
	C35.333340,80.000000 18.166677,80.000000 1.000011,80.000000 
	C1.000008,53.666679 1.000008,27.333359 1.000004,1.000029 
	C29.666647,1.000019 58.333294,1.000019 86.999954,1.000010 
	C86.999969,27.333303 86.999969,53.666607 86.999985,79.999954 
	C75.833336,80.000000 64.666664,80.000000 53.000000,80.000000 
M46.608829,62.820950 
	C57.657974,60.860149 66.886513,55.686256 74.402771,47.332169 
	C78.380875,42.910625 80.735710,38.063442 77.777824,32.368690 
	C74.134384,25.354021 67.806061,21.529139 60.755741,18.848127 
	C68.568733,29.721621 69.350769,37.326946 62.378654,38.516727 
	C65.592178,31.249996 65.238579,28.124218 59.334408,22.680958 
	C55.703857,19.333826 51.729931,15.918806 47.277020,14.015924 
	C41.761578,11.658983 35.607544,9.695481 29.699020,9.607791 
	C19.936356,9.462901 15.923945,25.964464 18.161045,37.411781 
	C18.945215,35.574509 19.563557,34.292839 20.048639,32.962578 
	C23.668406,23.035976 28.627186,20.512411 38.613754,24.100842 
	C48.238907,27.559408 57.655361,31.483412 59.677010,43.650944 
	C53.013397,48.975929 46.371140,54.803162 36.359013,52.442150 
	C37.382767,58.363998 40.752522,61.383793 46.608829,62.820950 
M32.172428,43.332638 
	C32.334919,37.204346 33.128010,31.277111 38.376686,26.715351 
	C28.832731,24.299995 24.610769,26.427113 22.125164,34.868893 
	C19.178249,44.877411 19.609598,54.895817 23.187933,64.711899 
	C25.119616,70.010887 29.238092,72.748199 34.680309,72.671967 
	C41.741230,72.573059 47.888760,69.513405 53.628139,65.470428 
	C51.755821,65.062897 49.992554,65.068573 48.256458,65.288635 
	C40.469662,66.275665 35.673672,63.081917 34.059097,55.501053 
	C33.265339,51.774132 32.852825,47.966022 32.172428,43.332638 
M48.312561,35.219051 
	C46.524136,34.364719 44.803848,33.125999 42.923080,32.792606 
	C41.690697,32.574146 39.053097,33.660027 39.050716,34.171055 
	C39.031322,38.342331 39.484509,42.515808 39.793983,46.688614 
	C43.052349,45.634308 46.663544,45.147373 49.486046,43.392162 
	C53.676014,40.786579 53.317455,38.942562 48.312561,35.219051 
z"/>
<path fill="#654CF0" opacity="1.000000" stroke="none" 
	d="
M46.221214,62.804031 
	C40.752522,61.383793 37.382767,58.363998 36.359013,52.442150 
	C46.371140,54.803162 53.013397,48.975929 59.677010,43.650944 
	C57.655361,31.483412 48.238907,27.559408 38.613754,24.100842 
	C28.627186,20.512411 23.668406,23.035976 20.048639,32.962578 
	C19.563557,34.292839 18.945215,35.574509 18.161045,37.411781 
	C15.923945,25.964464 19.936356,9.462901 29.699020,9.607791 
	C35.607544,9.695481 41.761578,11.658983 47.277020,14.015924 
	C51.729931,15.918806 55.703857,19.333826 59.334408,22.680958 
	C65.238579,28.124218 65.592178,31.249996 62.378654,38.516727 
	C69.350769,37.326946 68.568733,29.721621 60.755741,18.848127 
	C67.806061,21.529139 74.134384,25.354021 77.777824,32.368690 
	C80.735710,38.063442 78.380875,42.910625 74.402771,47.332169 
	C66.886513,55.686256 57.657974,60.860149 46.221214,62.804031 
z"/>
<path fill="#664DF1" opacity="1.000000" stroke="none" 
	d="
M32.220104,43.763645 
	C32.852825,47.966022 33.265339,51.774132 34.059097,55.501053 
	C35.673672,63.081917 40.469662,66.275665 48.256458,65.288635 
	C49.992554,65.068573 51.755821,65.062897 53.628139,65.470428 
	C47.888760,69.513405 41.741230,72.573059 34.680309,72.671967 
	C29.238092,72.748199 25.119616,70.010887 23.187933,64.711899 
	C19.609598,54.895817 19.178249,44.877411 22.125164,34.868893 
	C24.610769,26.427113 28.832731,24.299995 38.376686,26.715351 
	C33.128010,31.277111 32.334919,37.204346 32.220104,43.763645 
z"/>
<path fill="#664DF1" opacity="1.000000" stroke="none" 
	d="
M48.616051,35.445080 
	C53.317455,38.942562 53.676014,40.786579 49.486046,43.392162 
	C46.663544,45.147373 43.052349,45.634308 39.793983,46.688614 
	C39.484509,42.515808 39.031322,38.342331 39.050716,34.171055 
	C39.053097,33.660027 41.690697,32.574146 42.923080,32.792606 
	C44.803848,33.125999 46.524136,34.364719 48.616051,35.445080 
z"/>
</svg>